<?xml version="1.0" encoding="UTF-8"?>
<!DOCTYPE svg PUBLIC "-//W3C//DTD SVG 1.1//EN" "http://www.w3.org/Graphics/SVG/1.1/DTD/svg11.dtd">
<!-- Creator: CorelDRAW -->
<svg xmlns="http://www.w3.org/2000/svg" xml:space="preserve" width="2048px" height="2048px" style="shape-rendering:geometricPrecision; text-rendering:geometricPrecision; image-rendering:optimizeQuality; fill-rule:evenodd; clip-rule:evenodd"
viewBox="0 0 2048 2048"
 xmlns:xlink="http://www.w3.org/1999/xlink">
 <defs>
  <style type="text/css">
   <![CDATA[
    .fil0 {fill:none}
    .fil9 {fill:#414141}
    .fil6 {fill:#545454}
    .fil8 {fill:#757575}
    .fil5 {fill:#919191}
    .fil2 {fill:#BFC0C0}
    .fil3 {fill:#E6E6E7}
    .fil7 {fill:#414141;fill-rule:nonzero}
    .fil4 {fill:#545454;fill-rule:nonzero}
    .fil1 {fill:#AFAFAF;fill-rule:nonzero}
   ]]>
  </style>
 </defs>
 <g id="Layer_x0020_1">
  <metadata id="CorelCorpID_0Corel-Layer"/>
  <rect class="fil0" x="255.999" y="255.999" width="1536" height="1536"/>
  <g id="_544171544">
   <g>
    <g>
     <path id="_544174784" class="fil1" d="M1654.83 787.888l-1119.21 0c-39.2138,0 -74.8382,-17.1992 -100.636,-44.9079 -25.7988,-27.704 -41.8134,-65.9634 -41.8134,-108.082l0 -81.6225c0,-42.1158 16.0146,-80.3753 41.8134,-108.083 25.7977,-27.7063 61.4197,-44.9067 100.636,-44.9067l1119.21 0c-85.8993,157.591 -80.0162,224.837 0,387.601z"/>
     <path id="_544168088" class="fil2" d="M1643.82 756.302c-57.4394,-124.683 -62.38,-201.058 -1.95945,-324.428l-1102.73 0c-31.0122,0 -60.4134,12.8327 -82.3241,35.654 -21.9095,22.8225 -34.2296,53.4449 -34.2296,85.7481l0 81.6225c0,32.302 12.3189,62.9245 34.2296,85.7457 21.9106,22.8213 51.3119,35.6575 82.3241,35.6575l1104.69 0z"/>
     <g>
      <path id="_544175144" class="fil3" d="M1616.36 492.004c2.16024,-6.2126 4.53307,-12.528 7.09961,-18.9532l-1171.64 0c-5.01378,5.90552 -9.43347,12.2539 -13.2201,18.9532l1177.76 0z"/>
      <path id="_544168688" class="fil3" d="M1603.98 536.628c1.26024,-6.24686 2.74961,-12.5599 4.46103,-18.9532l-1180.72 0c-1.82599,6.1689 -3.18071,12.5032 -4.03937,18.9532l1180.3 0z"/>
      <path id="_544174880" class="fil3" d="M1598.74 581.252c0.196063,-6.29646 0.628347,-12.6059 1.29685,-18.9532l-1177.46 0 0 18.9532 1176.16 0z"/>
      <path id="_544165112" class="fil3" d="M1601.21 625.876c-0.88819,-6.35197 -1.55079,-12.6626 -1.98425,-18.9532l-1176.64 0 0 18.9532 1178.63 0z"/>
      <path id="_544168712" class="fil3" d="M1610.83 670.499c-1.82835,-6.39922 -3.45236,-12.7099 -4.87678,-18.952l-1182.27 0c0.857481,6.44882 2.21221,12.7843 4.03819,18.952l1183.11 0z"/>
      <path id="_544164584" class="fil3" d="M1626.14 715.124c-2.52992,-6.42756 -4.89804,-12.7429 -7.0878,-18.9532l-1180.45 0c3.78662,6.69922 8.20749,13.0465 13.2213,18.9532l1174.31 0z"/>
     </g>
    </g>
    <g>
     <path id="_544160744" class="fil4" d="M393.168 1175.83l1119.21 0c39.2138,0 74.8382,-17.2004 100.636,-44.9079 25.7988,-27.704 41.8134,-65.9634 41.8134,-108.082l0 -81.6225c0,-42.117 -16.0146,-80.3753 -41.8134,-108.084 -25.7977,-27.7051 -61.4209,-44.9055 -100.636,-44.9055l-1119.21 0c85.8993,157.591 80.0162,224.837 0,387.601z"/>
     <path id="_544184000" class="fil5" d="M404.182 1144.24c57.4394,-124.682 62.38,-201.057 1.95945,-324.428l1102.73 0c31.0122,0 60.4134,12.8339 82.3241,35.6551 21.9095,22.8225 34.2296,53.4449 34.2296,85.7481l0 81.6225c0,32.302 -12.3189,62.9245 -34.2296,85.7457 -21.9106,22.8213 -51.3119,35.6563 -82.3241,35.6563l-1104.69 0z"/>
     <g>
      <path id="_544176608" class="fil6" d="M431.637 879.947c-2.16024,-6.2126 -4.53307,-12.528 -7.09961,-18.9532l1171.64 0c5.01378,5.90552 9.43347,12.2539 13.2201,18.9532l-1177.76 0z"/>
      <path id="_544156784" class="fil6" d="M444.02 924.571c-1.26024,-6.24686 -2.74961,-12.5599 -4.46103,-18.9532l1180.72 0c1.82717,6.16772 3.18189,12.5032 4.04055,18.9532l-1180.3 0z"/>
      <path id="_544176872" class="fil6" d="M449.262 969.194c-0.196063,-6.29646 -0.628347,-12.6071 -1.29685,-18.9532l1177.46 0 0 18.9532 -1176.16 0z"/>
      <path id="_544181768" class="fil6" d="M446.795 1013.82c0.88819,-6.35197 1.55079,-12.6626 1.98425,-18.9532l1176.64 0 0 18.9532 -1178.63 0z"/>
      <path id="_544177184" class="fil6" d="M437.175 1058.44c1.82835,-6.39922 3.45236,-12.7099 4.87678,-18.9532l1182.27 0c-0.857481,6.45 -2.21221,12.7854 -4.03937,18.9532l-1183.11 0z"/>
      <path id="_544159664" class="fil6" d="M421.864 1103.07c2.52992,-6.42756 4.89804,-12.7429 7.0878,-18.9532l1180.45 0c-3.78662,6.69922 -8.20749,13.0465 -13.2213,18.9532l-1174.31 0z"/>
     </g>
    </g>
   </g>
   <g>
    <path id="_544176368" class="fil7" d="M1792 1175.83l-1362.58 0c-47.7414,0 -91.1115,20.9398 -122.519,54.6721 -31.4079,33.7288 -50.9044,80.3068 -50.9044,131.583l0 99.3709c0,51.2741 19.4965,97.8532 50.9044,131.586 31.4079,33.7299 74.7768,54.6697 122.519,54.6697l1362.58 0c-104.577,-191.857 -97.4139,-273.725 0,-471.881z"/>
    <path id="_544176440" class="fil8" d="M1778.59 1214.29c-69.9284,151.793 -75.9438,244.775 -2.38583,394.972l-1342.5 0c-37.7551,0 -73.5497,-15.6236 -100.225,-43.4079 -26.674,-27.7843 -41.6729,-65.0658 -41.6729,-104.393l0 -99.3698c0,-39.326 14.9976,-76.6075 41.6729,-104.391 26.6752,-27.7843 62.4697,-43.4103 100.225,-43.4103l1344.89 0z"/>
    <g>
     <path id="_544186040" class="fil9" d="M1745.17 1536.05c2.63032,7.56497 5.5193,15.2528 8.64331,23.074l-1426.4 0c-6.10394,-7.18819 -11.485,-14.9173 -16.0949,-23.074l1433.86 0z"/>
     <path id="_544177976" class="fil9" d="M1730.09 1481.72c1.53543,7.60512 3.34843,15.2906 5.43189,23.074l-1437.46 0c-2.22284,-7.50945 -3.87166,-15.2221 -4.91811,-23.074l1436.95 0z"/>
     <path id="_544178216" class="fil9" d="M1723.71 1427.4c0.239764,7.66536 0.765355,15.3473 1.57795,23.074l-1433.48 0 0 -23.074 1431.9 0z"/>
     <path id="_544174232" class="fil9" d="M1726.71 1373.07c-1.08071,7.73268 -1.8874,15.4158 -2.41418,23.074l-1432.49 0 0 -23.074 1434.91 0z"/>
     <path id="_544164704" class="fil9" d="M1738.42 1318.74c-2.22638,7.79174 -4.20237,15.4736 -5.93623,23.074l-1439.34 0c1.04528,-7.85197 2.6941,-15.5646 4.91693,-23.074l1440.36 0z"/>
     <path id="_544160696" class="fil9" d="M1757.06 1264.42c-3.07914,7.82481 -5.96221,15.5138 -8.62796,23.074l-1437.13 0c4.60985,-8.15552 9.99213,-15.8835 16.0961,-23.074l1429.66 0z"/>
    </g>
   </g>
  </g>
  <rect class="fil0" width="2048" height="2048"/>
 </g>
</svg>
